<svg width="107" height="20" viewBox="0 0 107 20" fill="none" xmlns="http://www.w3.org/2000/svg">
<path d="M96.5008 5.64368C88.955 4.7074 81.9259 3.87518 74.8969 2.9389C74.3801 2.83487 73.9666 2.21067 72.8296 1.27439C76.1374 0.858267 78.7215 0.338112 81.3057 0.234079C88.128 0.0260181 94.8469 0.0260048 101.669 0.0260048C102.496 0.0260048 103.323 -0.0780201 104.15 0.130043C106.838 0.650198 107.768 2.41873 106.321 4.81144C105.597 5.95579 104.77 6.9961 103.84 7.93238C100.325 11.4694 96.7075 14.9025 93.0897 18.3355C92.4695 18.9597 91.5391 19.2718 90.2987 20C90.092 14.6944 95.3638 13.238 96.5008 9.07673C95.5705 9.28479 94.7435 9.38882 94.02 9.59688C66.1107 17.2952 38.3047 16.4629 10.6022 8.97269C7.7079 8.24447 4.91698 7.10014 2.12605 6.05983C0.678902 5.53968 -0.561516 4.39531 0.265427 2.62678C0.988998 0.858253 2.43614 0.858253 4.09003 1.58647C22.5928 9.90897 42.2327 10.8453 62.0793 10.5332C72.4161 10.4291 82.5461 9.28478 92.5728 6.89207C93.8132 6.57997 95.0536 6.16384 96.5008 5.64368Z" fill="#5151F4"/>
</svg>
