<svg width="16" height="14" viewBox="0 0 16 14" fill="none" xmlns="http://www.w3.org/2000/svg">
<path fill-rule="evenodd" clip-rule="evenodd" d="M15.9998 7.00004C15.9998 7.26526 15.8945 7.51961 15.7069 7.70715C15.5194 7.89469 15.2651 8.00004 14.9998 8.00004H3.41383L7.70783 12.292C7.80081 12.385 7.87456 12.4954 7.92488 12.6169C7.9752 12.7384 8.0011 12.8686 8.0011 13C8.0011 13.1315 7.9752 13.2617 7.92488 13.3832C7.87456 13.5047 7.80081 13.6151 7.70783 13.708C7.61486 13.801 7.50448 13.8748 7.383 13.9251C7.26152 13.9754 7.13132 14.0013 6.99983 14.0013C6.86835 14.0013 6.73815 13.9754 6.61667 13.9251C6.49519 13.8748 6.38481 13.801 6.29183 13.708L0.291834 7.70804C0.198708 7.61515 0.124822 7.5048 0.074409 7.38331C0.0239961 7.26182 -0.00195313 7.13158 -0.00195312 7.00004C-0.00195313 6.86851 0.0239961 6.73827 0.074409 6.61678C0.124822 6.49529 0.198708 6.38493 0.291834 6.29204L6.29183 0.292043C6.47961 0.104269 6.73428 -0.0012207 6.99983 -0.0012207C7.26539 -0.0012207 7.52006 0.104269 7.70783 0.292043C7.89561 0.479816 8.0011 0.734491 8.0011 1.00004C8.0011 1.26559 7.89561 1.52027 7.70783 1.70804L3.41383 6.00004H14.9998C15.2651 6.00004 15.5194 6.1054 15.7069 6.29294C15.8945 6.48047 15.9998 6.73483 15.9998 7.00004Z" fill="#333333" fill-opacity="0.3"/>
</svg>
