<svg width="16" height="14" viewBox="0 0 16 14" fill="none" xmlns="http://www.w3.org/2000/svg">
<path fill-rule="evenodd" clip-rule="evenodd" d="M0.000165939 7.00004C0.000165939 7.26526 0.105522 7.51961 0.293058 7.70715C0.480595 7.89469 0.73495 8.00004 1.00017 8.00004H12.5862L8.29217 12.292C8.19919 12.385 8.12544 12.4954 8.07512 12.6169C8.0248 12.7384 7.9989 12.8686 7.9989 13C7.9989 13.1315 8.0248 13.2617 8.07512 13.3832C8.12544 13.5047 8.19919 13.6151 8.29217 13.708C8.38514 13.801 8.49552 13.8748 8.617 13.9251C8.73848 13.9754 8.86868 14.0013 9.00017 14.0013C9.13165 14.0013 9.26185 13.9754 9.38333 13.9251C9.50481 13.8748 9.61519 13.801 9.70817 13.708L15.7082 7.70804C15.8013 7.61515 15.8752 7.5048 15.9256 7.38331C15.976 7.26182 16.002 7.13158 16.002 7.00004C16.002 6.86851 15.976 6.73827 15.9256 6.61678C15.8752 6.49529 15.8013 6.38493 15.7082 6.29204L9.70817 0.292043C9.52039 0.104269 9.26572 -0.0012207 9.00017 -0.0012207C8.73461 -0.0012207 8.47994 0.104269 8.29217 0.292043C8.10439 0.479816 7.9989 0.734491 7.9989 1.00004C7.9989 1.26559 8.10439 1.52027 8.29217 1.70804L12.5862 6.00004H1.00017C0.73495 6.00004 0.480595 6.1054 0.293058 6.29294C0.105522 6.48047 0.000165939 6.73483 0.000165939 7.00004Z" fill="white"/>
</svg>
