<svg width="107" height="20" viewBox="0 0 107 20" fill="none" xmlns="http://www.w3.org/2000/svg">
<g clip-path="url(#clip0_121_1478)">
<path d="M96.5175 14.3563C88.9837 15.2926 81.966 16.1248 74.9482 17.0611C74.4322 17.1651 74.0193 17.7893 72.8841 18.7256C76.1866 19.1417 78.7667 19.6619 81.3467 19.7659C88.1581 19.974 94.8663 19.974 101.678 19.974C102.503 19.974 103.329 20.078 104.155 19.87C106.838 19.3498 107.767 17.5813 106.322 15.1886C105.599 14.0442 104.774 13.0039 103.845 12.0676C100.336 8.53056 96.724 5.09753 93.1119 1.6645C92.4926 1.04032 91.5638 0.728218 90.3254 0C90.119 5.30559 95.3823 6.76203 96.5175 10.9233C95.5887 10.7152 94.7631 10.6112 94.0407 10.4031C66.1759 2.70481 38.4144 3.53707 10.756 11.0273C7.86635 11.7555 5.07988 12.8999 2.2934 13.9402C0.848564 14.4603 -0.389877 15.6047 0.435745 17.3732C1.15816 19.1417 2.603 19.1417 4.25425 18.4135C22.7275 10.091 42.3361 9.15475 62.151 9.46684C72.4713 9.57087 82.5852 10.7152 92.5958 13.1079C93.8343 13.42 95.0727 13.8362 96.5175 14.3563Z" fill="#5151F4"/>
</g>
<defs>
<clipPath id="clip0_121_1478">
<rect width="106.829" height="20" fill="white" transform="matrix(-1 0 0 1 107 0)"/>
</clipPath>
</defs>
</svg>
