<svg width="100" height="65" viewBox="0 0 100 65" fill="none" xmlns="http://www.w3.org/2000/svg">
<path d="M0.0155029 3.1754C-0.0813751 2.63168 0.280876 2.11237 0.824593 2.0155L9.68507 0.43689C10.2288 0.340019 10.7481 0.702263 10.845 1.24599C10.9418 1.78971 10.5796 2.30901 10.0359 2.40588L2.1599 3.8091L3.56311 11.6851C3.65998 12.2288 3.29774 12.7481 2.75401 12.845C2.21029 12.9418 1.69099 12.5796 1.59412 12.0359L0.0155029 3.1754ZM97.0943 34.4394C95.217 29.0582 91.2702 26.3311 85.4825 24.8121C79.6148 23.2721 72.0554 23.0264 63.1552 22.5272C45.4479 21.5341 22.9685 19.5436 0.427879 3.82017L1.57211 2.17983C23.63 17.5664 45.6265 19.5409 63.2672 20.5303C72.041 21.0224 79.8735 21.2723 85.9902 22.8776C92.1867 24.5039 96.8166 27.5718 98.9827 33.7806L97.0943 34.4394ZM60.5464 64C60.4008 63.0107 60.4007 63.0107 60.4008 63.0107C60.401 63.0106 60.4013 63.0106 60.4018 63.0105C60.4029 63.0103 60.4046 63.0101 60.407 63.0097C60.4118 63.009 60.4194 63.0079 60.4296 63.0063C60.4501 63.0032 60.4813 62.9985 60.5229 62.992C60.606 62.979 60.7305 62.9592 60.8934 62.9324C61.2191 62.8786 61.6981 62.7963 62.3063 62.6833C63.5229 62.4571 65.2549 62.1079 67.3092 61.6168C71.4234 60.6333 76.8049 59.0868 81.9217 56.8324C87.057 54.5698 91.8253 51.6373 94.8134 47.9317C97.7545 44.2844 98.9909 39.8761 97.0943 34.4394L98.9827 33.7806C101.129 39.9339 99.7008 45.0569 96.3703 49.1871C93.0868 53.259 87.9766 56.3502 82.7281 58.6626C77.4611 60.9832 71.9533 62.563 67.7742 63.562C65.6819 64.0621 63.9162 64.4182 62.6718 64.6496C62.0495 64.7653 61.5572 64.8498 61.2192 64.9056C61.0502 64.9335 60.9198 64.9543 60.8309 64.9681C60.7865 64.975 60.7524 64.9802 60.7292 64.9838C60.7175 64.9855 60.7086 64.9869 60.7024 64.9878C60.6993 64.9883 60.6969 64.9886 60.6951 64.9889C60.6943 64.989 60.6935 64.9891 60.6931 64.9892C60.6925 64.9893 60.6921 64.9893 60.5464 64Z" fill="#FFC759"/>
</svg>
