<svg width="32" height="33" viewBox="0 0 32 33" fill="none" xmlns="http://www.w3.org/2000/svg">
<g clip-path="url(#clip0_121_1355)">
<path d="M31.0621 30.8247H30.0621V12.325C30.0621 11.8073 29.6423 11.3875 29.1246 11.3875H25.3747C24.8569 11.3875 24.4372 11.8073 24.4372 12.325V30.8247H22.5622V18.5749C22.5622 18.0572 22.1424 17.6374 21.6247 17.6374H17.8748C17.357 17.6374 16.9373 18.0572 16.9373 18.5749V30.8247H15.0623V22.0124C15.0623 21.4946 14.6426 21.0749 14.1248 21.0749H10.3749C9.85712 21.0749 9.43737 21.4946 9.43737 22.0124V30.8247H7.5624V24.2623C7.5624 23.7446 7.14265 23.3248 6.62491 23.3248H2.87496C2.35722 23.3248 1.93747 23.7446 1.93747 24.2623V30.8247H0.937487C0.419744 30.8247 0 31.2445 0 31.7622C0 32.28 0.419744 32.6997 0.937487 32.6997H31.0621C31.5798 32.6997 31.9996 32.28 31.9996 31.7622C31.9996 31.2445 31.5798 30.8247 31.0621 30.8247Z" fill="#5151F4"/>
<path d="M0.937487 20.8441C6.78853 20.8441 13.1336 18.7428 18.8039 14.9271C23.2447 11.9387 26.9466 8.1211 29.2461 4.21197L30.1566 7.60986C30.2688 8.02873 30.8108 8.3906 31.3048 8.27272C31.8084 8.1526 32.1016 7.62467 31.9676 7.12455L30.4325 1.39526C30.2984 0.895199 29.7846 0.598329 29.2843 0.732389L23.555 2.26756C23.0549 2.40155 22.7581 2.91561 22.8921 3.41573C23.0262 3.91585 23.54 4.21272 24.0403 4.07859L27.7312 3.08961C25.5859 6.81743 22.0404 10.4891 17.7571 13.3715C12.3929 16.9812 6.4196 18.9691 0.937487 18.9691C0.419744 18.9691 0 19.3889 0 19.9066C0 20.4244 0.419744 20.8441 0.937487 20.8441Z" fill="#5151F4"/>
</g>
<defs>
<clipPath id="clip0_121_1355">
<rect width="32" height="32" fill="white" transform="translate(0 0.699768)"/>
</clipPath>
</defs>
</svg>
