<svg width="16" height="16" viewBox="0 0 16 16" fill="none" xmlns="http://www.w3.org/2000/svg">
<path d="M0.884307 8.2669L3.25764 10.0002L2.35631 12.7916C2.21065 13.2245 2.2088 13.6929 2.35105 14.127C2.49329 14.561 2.772 14.9375 3.14564 15.2002C3.51288 15.4714 3.9579 15.6167 4.41441 15.6144C4.87092 15.6121 5.31447 15.4624 5.67897 15.1876L7.99964 13.4796L10.321 15.1856C10.6875 15.4552 11.1302 15.6017 11.5852 15.6039C12.0403 15.6061 12.4843 15.464 12.8535 15.1979C13.2227 14.9319 13.498 14.5556 13.6398 14.1232C13.7817 13.6908 13.7828 13.2246 13.643 12.7916L12.7416 10.0002L15.115 8.2669C15.4811 7.99924 15.7532 7.62273 15.8925 7.19116C16.0319 6.75959 16.0312 6.29502 15.8908 5.86383C15.7503 5.43263 15.4771 5.05685 15.1103 4.79017C14.7435 4.52349 14.3018 4.37955 13.8483 4.3789H10.933L10.0483 1.62157C9.90919 1.18754 9.63582 0.80891 9.26762 0.540278C8.89942 0.271645 8.45542 0.126892 7.99964 0.126892C7.54386 0.126892 7.09986 0.271645 6.73166 0.540278C6.36346 0.80891 6.09009 1.18754 5.95097 1.62157L5.06631 4.3789H2.15364C1.70014 4.37955 1.25843 4.52349 0.891627 4.79017C0.524819 5.05685 0.251667 5.43263 0.111188 5.86383C-0.0292916 6.29502 -0.0299134 6.75959 0.109411 7.19116C0.248736 7.62273 0.520881 7.99924 0.886974 8.2669H0.884307Z" fill="#FFE605"/>
</svg>
